<svg width="283" height="64" viewBox="0 0 283 64" fill="none" xmlns="http://www.w3.org/2000/svg">
  <path d="M141.04 16c-11.4 0-19.73 6.42-24 11.63V16h-16v32h16V34.26c0-5.87 4.2-9.5 8.5-9.5 4.3 0 8.5 2.5 8.5 9.5V48h16V34.26c0-12.5-7.1-18.26-17-18.26zm-104 0c-10.9 0-18 5.76-18 18.26v13.48c0 12.5 7.1 18.26 17 18.26 10.9 0 18-5.76 18-18.26V34.26c0-12.5-7.1-18.26-17-18.26zm-9 31.74c-4.3 0-7.5-2.5-7.5-8.5v-14.5c0-6 3.2-8.5 7.5-8.5s7.5 2.5 7.5 8.5v14.5c0 6-3.2 8.5-7.5 8.5zM250.04 16c-10.9 0-18 5.76-18 18.26v13.48c0 12.5 7.1 18.26 17 18.26 10.9 0 18-5.76 18-18.26V34.26c0-12.5-7.1-18.26-17-18.26zm-9 31.74c-4.3 0-7.5-2.5-7.5-8.5v-14.5c0-6 3.2-8.5 7.5-8.5s7.5 2.5 7.5 8.5v14.5c0 6-3.2 8.5-7.5 8.5z" fill="#000"/>
  <path d="M48 0L16 32 0 16 16 0h32z" fill="#000"/>
  <path d="M48 0L16 32 0 16 16 0h32z" fill="#000"/>
</svg>
